<svg width="1200" height="600" viewBox="0 0 1200 600" fill="none" xmlns="http://www.w3.org/2000/svg">
<rect width="1200" height="600" fill="#262335"/>
<path d="M497.204 303.285V273.785V269.785H465.204V303.285H497.204Z" fill="#D73933"/>
<path d="M497.204 232.785V201.285H466.204V232.785H497.204Z" fill="#D73933"/>
<path d="M497.204 372.785V340.285H465.204V372.785H497.204Z" fill="#D73933"/>
<path d="M566.204 232.785V203.785V201.285H535.204V232.785H566.204Z" fill="#D73933"/>
<path d="M605.204 200.285V232.785H608.204H636.704V200.285H605.204Z" fill="#D73933"/>
<path d="M566.204 162.285V131.285L535.204 144.925V162.285H538.204H566.204Z" fill="#D73933"/>
<path d="M636.704 162.285V143.285L605.204 129.005V162.285H636.704Z" fill="#D73933"/>
<path d="M678.204 162.285H708.204L675.704 144.752V162.285H678.204Z" fill="#D73933"/>
<path d="M708.204 232.785V203.285V200.285H675.704V232.785H708.204Z" fill="#D73933"/>
<path d="M748.704 232.785H762.204L743.954 203.03V232.785H748.704Z" fill="#D73933"/>
<path d="M745.704 303.285H776.704L773.291 271.285H745.704V303.285Z" fill="#D73933"/>
<path d="M678.704 303.285H708.204V271.285H675.704V303.285H678.704Z" fill="#D73933"/>
<path d="M708.204 372.785V343.285V340.785H675.704V372.785H708.204Z" fill="#D73933"/>
<path d="M745.704 343.285V372.785H748.704H766.704L772.211 343.285H745.704Z" fill="#D73933"/>
<path d="M708.204 439.285V410.285H676.704V439.285H678.204H708.204Z" fill="#D73933"/>
<path d="M636.704 439.285V413.785V411.785H605.204V439.285H609.204H636.704Z" fill="#D73933"/>
<path d="M566.204 409.785H535.204V439.285H537.204H566.204V409.785Z" fill="#D73933"/>
<path d="M566.204 372.785V344.285V339.785H535.204V372.785H566.204Z" fill="#D73933"/>
<path d="M636.704 335.285V303.285V273.785V270.285H569.204L536.204 303.285H566.204H599.204L603.704 307.785V368.285L609.204 362.785L636.704 335.285Z" fill="#D73933"/>
<path fill-rule="evenodd" clip-rule="evenodd" d="M670.204 162.285V141.785L636.704 143.285V162.285H605.204H599.204V126.285L566.204 131.285V162.285H538.204H535.204H528.704V147.785L497.204 162.285L460.704 195.285H497.204V201.285V232.785H466.204H460.704V195.285L440.704 232.785L436.204 265.785L435.778 273.785L434.204 303.285L432.204 335.285L450.704 372.785L460.704 404.285L470.612 413.785L497.204 439.285L528.704 454.785L537.204 457.392L566.204 466.285L599.204 468.285L609.204 467.085L636.704 463.785H670.204L678.204 458.627L708.204 439.285H678.204H676.704H670.204V413.785V404.285H708.204V410.285V439.285L739.204 404.285L748.704 393.404L766.704 372.785H748.704H745.704H739.204V343.285V335.285H773.704L776.704 303.285H745.704H739.204V265.785H748.704H772.704L762.204 232.785H748.704H743.954H739.204V203.285V195.285L708.204 162.285H678.204H675.704H670.204ZM566.204 265.785H599.204H608.204H636.704V270.285V273.785V303.285V335.285L609.204 362.785L603.704 368.285L599.204 372.785V344.285V335.285V303.285H566.204H536.204H528.704L558.204 273.785L566.204 265.785ZM670.204 232.785V195.285H678.204H708.204V200.285V203.285V232.785H675.704H670.204ZM670.204 265.785H708.204V271.285V303.285H678.704H675.704H670.204V273.785V265.785ZM599.204 232.785V203.785V195.285H636.704V200.285V232.785H608.204H605.204H599.204ZM528.704 232.785V195.285H538.204H566.204V201.285V203.785V232.785H535.204H528.704ZM528.704 372.785V335.285H536.204H566.204V339.785V344.285V372.785H535.204H528.704ZM670.204 372.785V335.285H678.704H708.204V340.785V343.285V372.785H675.704H670.204ZM528.704 404.285H566.204V409.785V439.285H537.204H535.204H528.704V413.785V404.285ZM460.704 265.785H497.204V269.785V273.785V303.285H465.204H460.704V273.785V269.285V265.785ZM599.204 439.285V404.285H609.204H636.704V411.785V413.785V439.285H609.204H605.204H599.204ZM460.704 335.285H497.204V340.285V372.785H465.204H460.704V335.285Z" fill="#FEDE5D"/>
<path d="M599.204 265.785H566.204L558.204 273.785L528.704 303.285H536.204L569.204 270.285H636.704V265.785H608.204H599.204Z" fill="#A02621"/>
<path d="M497.204 265.785H460.704V269.285V273.785V303.285H465.204V269.785H497.204V265.785Z" fill="#A02621"/>
<path d="M528.704 195.285V232.785H535.204V201.285H566.204V195.285H538.204H528.704Z" fill="#A02621"/>
<path d="M599.204 203.785V232.785H605.204V200.285H636.704V195.285H599.204V203.785Z" fill="#A02621"/>
<path d="M708.204 265.785H670.204V273.785V303.285H675.704V271.285H708.204V265.785Z" fill="#A02621"/>
<path d="M739.204 265.785V303.285H745.704V271.285H773.291L772.704 265.785H748.704H739.204Z" fill="#A02621"/>
<path d="M739.204 203.285V232.785H743.954V203.03L739.204 195.285V203.285Z" fill="#A02621"/>
<path d="M670.204 141.785V162.285H675.704V144.752L670.204 141.785Z" fill="#A02621"/>
<path d="M773.704 335.285H739.204V343.285V372.785H745.704V343.285H772.211L773.704 335.285Z" fill="#A02621"/>
<path d="M670.204 335.285V372.785H675.704V340.785H708.204V335.285H678.704H670.204Z" fill="#A02621"/>
<path d="M599.204 404.285V439.285H605.204V411.785H636.704V404.285H609.204H599.204Z" fill="#A02621"/>
<path d="M528.704 335.285V372.785H535.204V339.785H566.204V335.285H536.204H528.704Z" fill="#A02621"/>
<path d="M599.204 303.285V335.285V344.285V372.785L603.704 368.285V307.785L599.204 303.285Z" fill="#A02621"/>
<path d="M528.704 147.785V162.285H535.204C544.464 161.099 549.656 160.433 551.204 154.785C557.396 156.337 560.658 155.737 566.204 152.785V131.285L535.204 144.925L528.704 147.785Z" fill="#A02621"/>
<path d="M599.204 126.285V162.285H605.204V152.785C614.377 158.926 621.727 160.654 636.704 162.285V143.285L605.204 129.005L599.204 126.285Z" fill="#A02621"/>
<path d="M497.204 195.285H460.704V232.785H466.204V228.785C476.369 226.033 480.804 223.237 483.704 213.285C492.223 210.78 495.118 208.403 494.704 201.285H497.204V195.285Z" fill="#A02621"/>
<path d="M497.204 335.285H460.704V372.785H465.204H474.204C471.917 365.76 469.687 362.572 465.204 357.285V340.285H497.204V335.285Z" fill="#A02621"/>
<path d="M566.204 404.285H528.704V413.785V439.285H535.204H537.204H553.204C549.156 431.689 544.882 428.664 535.204 424.535V409.785H566.204V404.285Z" fill="#A02621"/>
<path d="M708.204 404.285H670.204V413.785V439.285H676.704H678.204H708.204V410.285H702.704C701.414 411.29 701.103 411.929 701.704 413.285C692.398 415.558 685.501 414.907 683.704 425.785C680.343 426.219 678.871 426.819 676.704 428.285V410.285H702.704H708.204V404.285Z" fill="#A02621"/>
<path d="M745.704 343.285V372.785H748.704H766.704L772.211 343.285H745.704Z" fill="#A02621"/>
<path d="M745.704 303.285H776.704L773.291 271.285H745.704V303.285Z" fill="#A02621"/>
<path d="M670.204 195.285V232.785H675.704V200.285H699.204C701.674 203.868 703.67 205.609 708.204 208.285V203.285V200.285V195.285H678.204H670.204Z" fill="#A02621"/>
<path d="M566.204 265.785H528.704H497.204V269.785V273.785H558.204L566.204 265.785Z" fill="#DFB300"/>
<path d="M599.204 232.785V265.785H608.204V232.785H605.204H599.204Z" fill="#DFB300"/>
<path d="M599.204 203.785V195.285H566.204V201.285V203.785H599.204Z" fill="#DFB300"/>
<path d="M528.704 162.285V168.785V195.285H538.204V162.285H535.204H528.704Z" fill="#DFB300"/>
<path d="M670.204 195.285H678.204V176.5V162.285H675.704H670.204V170.535V178.785V195.285Z" fill="#DFB300"/>
<path d="M739.204 195.285H708.204V200.285V203.285H713.204H739.204V195.285Z" fill="#DFB300"/>
<path d="M739.204 232.785V242.785V265.785H748.704V232.785H743.954H739.204Z" fill="#DFB300"/>
<path d="M670.204 303.285V335.285H678.704V303.285H675.704H670.204Z" fill="#DFB300"/>
<path d="M739.204 335.285H708.204V340.785V343.285H739.204V335.285Z" fill="#DFB300"/>
<path d="M670.204 404.285H636.704V411.785V413.785H670.204V404.285Z" fill="#DFB300"/>
<path d="M599.204 372.785V404.285H609.204V362.785L603.704 368.285L599.204 372.785Z" fill="#DFB300"/>
<path d="M528.704 404.285H499.204H460.704L470.612 413.785H513.204H528.704V404.285Z" fill="#DFB300"/>
<path d="M536.204 303.285H528.704V335.285H536.204V303.285Z" fill="#DFB300"/>
<path d="M599.204 335.285H566.204V339.785V344.285H599.204V335.285Z" fill="#DFB300"/>
<path d="M599.204 126.285L566.204 131.285V155.285C568.464 155.368 569.791 154.383 572.204 151.785C581.047 154.943 585.979 154.89 594.704 149.785C595.807 152.013 599.204 152.785 599.204 152.785V126.285Z" fill="#DFB300"/>
<path d="M670.204 162.285V141.785L636.704 143.285V155.285H640.204C646.297 161.366 649.432 165.21 660.704 163.285C662.638 167.021 664.484 168.727 670.204 170.535V162.285Z" fill="#DFB300"/>
<path d="M739.204 232.785V203.285H713.204C715.731 212.289 718.131 216.612 727.204 220.785C728.181 231.693 731.539 236.054 739.204 242.785V232.785Z" fill="#DFB300"/>
<path d="M773.704 335.285L776.704 303.285H752.704C751.814 306.458 752.256 308.114 755.204 310.785C748.981 320.159 748.097 325.523 751.204 335.285H773.704Z" fill="#DFB300"/>
<path d="M708.204 404.285H739.204V372.785V367.285C733.378 369.848 731.964 372.83 730.204 378.785C719.644 383.574 717.119 388.129 717.204 398.785C711.407 398.247 709.79 399.867 708.204 404.285Z" fill="#DFB300"/>
<path d="M739.204 404.285H708.204V410.285V439.285L739.204 404.285Z" fill="#DFB300"/>
<path d="M528.704 454.785V439.285V423.785C528.165 421.681 526.828 421.184 523.704 420.785C521.37 416.806 519.104 415.252 513.204 413.785H470.612L497.204 439.285L528.704 454.785Z" fill="#DFB300"/>
<path d="M528.704 162.285V147.785L497.204 162.285L460.704 195.285H491.704C494.453 193.077 495.046 191.612 495.204 188.785C505.479 187.45 510.482 185.997 511.204 175.785C522.208 175.425 526.568 174.193 528.704 168.785V162.285Z" fill="#DFB300"/>
<path d="M708.204 195.285H739.204L708.204 162.285H678.204V176.5C681.634 184.076 684.31 187.758 695.5 189.5C697.986 193.273 699.72 194.587 703.5 195.285H708.204Z" fill="#DFB300"/>
<path d="M670.204 265.785H636.704V270.285V273.785H670.204V265.785Z" fill="#DFB300"/>
<path d="M670.204 463.785V439.285V434.785C667.412 435.204 666.311 435.982 664.704 437.785C651.462 433.795 647.038 436.729 640.204 443.785C638.964 443.494 637.803 443.245 636.704 443.046C629.455 441.73 624.949 442.583 618.704 447.785C615.354 445.089 612.406 443.986 609.204 443.921C606.256 443.861 603.093 444.681 599.204 445.949C598.403 446.21 597.572 446.49 596.704 446.785C588.144 440.817 582.667 439.873 571.704 442.285C569.717 441.454 567.93 440.84 566.204 440.389C563.544 439.695 561.031 439.391 558.161 439.285H551.704H537.204V457.392L566.204 466.285L599.204 468.285L609.204 467.085L636.704 463.785H670.204Z" fill="#DFB300"/>
<path d="M460.704 232.785V195.285L440.704 232.785L436.204 265.785L434.204 303.285L432.204 335.285L450.704 372.785L460.704 404.285H499.204L484.204 386.285L474.188 372.785H465.204H460.704V354.035C459.898 349.535 458.964 347.265 456.204 343.785H460.704V335.285H457.696C457.951 330.883 456.921 327.279 453.704 322.785C455.303 313.86 453.86 308.478 450.704 298.785C454.128 289.517 454.638 276.121 453.204 265.785C458.495 258.052 459.824 253.371 458.704 244.285C459.457 243.828 460.121 243.38 460.704 242.926V265.785H468V232.785H466.204H460.704Z" fill="#DFB300"/>
<path fill-rule="evenodd" clip-rule="evenodd" d="M484.914 160.879C488.863 149.369 493.132 145.683 505.705 145.785C511.117 135.687 515.657 131.915 530.204 133.285C536.263 125.003 541.181 122.478 555.204 125.285C565.796 115.321 571.518 117.042 581.704 120.785C591.663 114.425 597.246 113.299 607.204 120.785C617.34 115.69 623.029 114.789 633.204 122.785C644.868 118.399 650.314 120.503 658.704 129.785C669.669 126.558 674.878 128.826 682.704 139.285C695.694 139.123 699.809 143.423 705.204 153.785C716.78 154.985 722.409 156.921 725.704 170.285C737.578 172.9 742.933 175.709 743.204 190.285C754.033 192.836 757.163 197.256 757.204 210.785C766.993 216.205 769.895 220.343 766.704 231.285C779.14 239.86 779.005 244.519 776.704 252.785C785.31 260.989 786.993 266.371 780.704 278.285C788.279 289.178 787.021 294.748 780.704 304.285C786.242 314.828 786.057 320.648 777.204 330.785C781.199 343.847 778.3 348.99 768.704 356.285C771.257 368.256 767.813 373.118 757.704 380.285C758.823 392.618 755.874 397.5 743.704 402.285C741.52 414.947 737.038 418.653 725.704 421.785C724.227 431.517 720.537 435.44 706.204 438.285C702.112 448.924 696.992 451.894 683.704 452.785C678.034 462.744 672.284 464.259 659.704 463.285C650.668 473.303 644.758 473.126 633.704 469.285C624.887 478.063 619.136 477.596 608.204 472.285C597.274 480.498 591.28 479.071 580.704 471.285C569.474 476.341 563.74 475.603 554.704 466.785C540.332 471.18 536.113 467.38 529.704 458.785C518.127 460.303 512.42 459.221 506.704 446.285C491.5 446.312 487.708 442.22 485.704 430.785C472.651 428.867 468.856 424.596 466.704 412.785C455.719 408.681 451.373 404.812 450.704 391.785C438.723 385.705 437.013 380.05 437.704 368.285C426.729 361.942 426.264 355.634 427.704 343.285C418.596 336.865 418.283 330.964 422.204 318.285C415.809 309.287 414.887 303.802 420.704 292.785C414.704 281.463 414.246 275.545 422.204 266.285C421.865 264.944 421.487 263.696 421.128 262.509C419.004 255.491 417.517 250.575 428.204 240.785C428.885 232.588 430.699 228.821 437.704 224.285C437.461 211.981 438.618 205.796 450.704 200.285C452.684 188.159 455.53 183.035 466.704 179.785C469.605 169.387 471.617 164.221 484.914 160.879ZM549.204 139.785C542.979 147.552 537.906 148.806 527.704 148.785C523.491 158.593 517.367 159.723 505.705 160.879C502.431 170.054 497.81 172.727 488.204 176.285C486.113 185.369 482.786 189.026 472.704 192.785C471.991 202.601 469.084 206.894 459.204 212.285C459.895 221.469 458.627 226.154 450.204 232.785C455.025 239.74 445.214 255.283 443.204 255.285C444.589 255.343 445.723 275.726 438.704 277.785C443.929 287.718 442.994 292.872 438.704 301.785C444.543 310.47 445.012 315.77 442.204 325.785C448.519 332.622 450.562 336.991 447.204 347.285C457.734 354.68 458.512 359.752 457.204 369.285C465.681 374.764 469.535 378.272 469.704 387.785C479.07 393.117 484.084 396.24 485.204 406.285C495.359 410.477 500.326 413.259 503.204 421.785C514.625 424.066 519.062 426.761 523.204 434.285C536.687 433.408 541.767 438.131 550.204 449.285C558.083 447.453 562.744 447.851 572.204 455.285C581.783 452.127 587.147 452.39 596.704 457.785C604.833 454.838 609.726 454.589 619.204 457.285C625.794 452.107 630.299 450.466 641.704 452.785C647.23 446.753 651.368 444.485 664.204 446.285C664.614 445.839 665.009 445.403 665.393 444.979C670.588 439.243 673.841 435.652 686.704 435.285C690.588 427.849 693.716 424.511 704.704 423.285L704.737 423.166C707.113 414.605 708.456 409.768 721.704 407.285C722.881 397.307 725.761 392.877 737.204 388.285C737.634 379.597 739.124 375.01 748.204 368.285C747.123 357.778 749.132 353.258 756.704 347.285C756.644 346.878 756.584 346.478 756.525 346.085C755.141 336.838 754.312 331.298 762.704 324.285C759.175 314.15 760.283 309.04 764.204 300.285C763.995 299.762 763.79 299.253 763.589 298.758C760.714 291.657 758.924 287.235 764.204 278.285C757.899 270.714 756.555 265.62 758.704 254.785C747.873 244.95 744.307 238.872 745.704 226.285C745.493 226.164 745.284 226.044 745.078 225.926C738.844 222.356 735.16 220.247 734.204 205.785C726.142 202.274 722.732 198.5 719.704 186.785C709.99 183.423 705.488 180.592 702.704 170.285C692.861 168.505 688.762 165.437 684.204 156.285C672.567 156.303 668.11 153.72 663.204 145.285C653.817 146.838 648.806 144.797 640.204 137.285C632.636 140.05 627.762 139.259 617.704 132.785C609.311 136.476 604.368 137.247 594.204 131.285C587.572 136.958 582.56 137.435 571.704 134.285C565.865 138.884 561.597 140.636 549.204 139.785Z" fill="#FFECA0"/>
<path fill-rule="evenodd" clip-rule="evenodd" d="M484.914 170.879C488.863 159.369 493.132 155.683 505.705 155.785C511.117 145.687 515.657 141.915 530.204 143.285C536.263 135.003 541.181 132.478 555.204 135.285C565.796 125.321 571.518 127.042 581.704 130.785C591.663 124.425 597.246 123.299 607.204 130.785C617.34 125.69 623.029 124.789 633.204 132.785C644.868 128.399 650.314 130.503 658.704 139.785C669.669 136.558 674.878 138.826 682.704 149.285C695.694 149.123 699.809 153.423 705.204 163.785C716.78 164.985 722.409 166.921 725.704 180.285C737.578 182.9 742.933 185.709 743.204 200.285C754.033 202.836 757.163 207.256 757.204 220.785C766.993 226.205 769.895 230.343 766.704 241.285C779.14 249.86 779.005 254.519 776.704 262.785C785.31 270.989 786.993 276.371 780.704 288.285C788.279 299.178 787.021 304.748 780.704 314.285C786.242 324.828 786.057 330.648 777.204 340.785C781.199 353.847 778.3 358.99 768.704 366.285C771.257 378.256 767.813 383.118 757.704 390.285C758.823 402.618 755.874 407.5 743.704 412.285C741.52 424.947 737.038 428.653 725.704 431.785C724.227 441.517 720.537 445.44 706.204 448.285C702.112 458.924 696.992 461.894 683.704 462.785C678.034 472.744 672.284 474.259 659.704 473.285C650.668 483.303 644.758 483.126 633.704 479.285C624.887 488.063 619.136 487.596 608.204 482.285C597.274 490.498 591.28 489.071 580.704 481.285C569.474 486.341 563.74 485.603 554.704 476.785C540.332 481.18 536.113 477.38 529.704 468.785C518.127 470.303 512.42 469.221 506.704 456.285C491.5 456.312 487.708 452.22 485.704 440.785C472.651 438.867 468.856 434.596 466.704 422.785C455.719 418.681 451.373 414.812 450.704 401.785C438.723 395.705 437.013 390.05 437.704 378.285C426.729 371.942 426.264 365.634 427.704 353.285C418.596 346.865 418.283 340.964 422.204 328.285C415.809 319.287 414.887 313.802 420.704 302.785C414.704 291.463 414.246 285.545 422.204 276.285C421.865 274.944 421.487 273.696 421.128 272.509C419.004 265.491 417.517 260.575 428.204 250.785C428.885 242.588 430.699 238.821 437.704 234.285C437.461 221.981 438.618 215.796 450.704 210.285C452.684 198.159 455.53 193.035 466.704 189.785C469.605 179.387 471.617 174.221 484.914 170.879ZM549.204 149.785C542.979 157.552 537.906 158.806 527.704 158.785C523.491 168.593 517.367 169.723 505.705 170.879C502.431 180.054 497.81 182.727 488.204 186.285C486.113 195.369 482.786 199.026 472.704 202.785C471.991 212.601 469.084 216.894 459.204 222.285C459.895 231.469 458.627 236.154 450.204 242.785C455.025 249.74 445.214 265.283 443.204 265.285C444.589 265.343 445.723 285.726 438.704 287.785C443.929 297.718 442.994 302.872 438.704 311.785C444.543 320.47 445.012 325.77 442.204 335.785C448.519 342.622 450.562 346.991 447.204 357.285C457.734 364.68 458.512 369.752 457.204 379.285C465.681 384.764 469.535 388.272 469.704 397.785C479.07 403.117 484.084 406.24 485.204 416.285C495.359 420.477 500.326 423.259 503.204 431.785C514.625 434.066 519.062 436.761 523.204 444.285C536.687 443.408 541.767 448.131 550.204 459.285C558.083 457.453 562.744 457.851 572.204 465.285C581.783 462.127 587.147 462.39 596.704 467.785C604.833 464.838 609.726 464.589 619.204 467.285C625.794 462.107 630.299 460.466 641.704 462.785C647.23 456.753 651.368 454.485 664.204 456.285C664.614 455.839 665.009 455.403 665.393 454.979C670.588 449.243 673.841 445.652 686.704 445.285C690.588 437.849 693.716 434.511 704.704 433.285L704.737 433.166C707.113 424.605 708.456 419.768 721.704 417.285C722.881 407.307 725.761 402.877 737.204 398.285C737.634 389.597 739.124 385.01 748.204 378.285C747.123 367.778 749.132 363.258 756.704 357.285C756.644 356.878 756.584 356.478 756.525 356.085C755.141 346.838 754.312 341.298 762.704 334.285C759.175 324.15 760.283 319.04 764.204 310.285C763.995 309.762 763.79 309.253 763.589 308.758C760.714 301.657 758.924 297.235 764.204 288.285C757.899 280.714 756.555 275.62 758.704 264.785C747.873 254.95 744.307 248.872 745.704 236.285C745.493 236.164 745.284 236.044 745.078 235.926C738.844 232.356 735.16 230.247 734.204 215.785C726.142 212.274 722.732 208.5 719.704 196.785C709.99 193.423 705.488 190.592 702.704 180.285C692.861 178.505 688.762 175.437 684.204 166.285C672.567 166.303 668.11 163.72 663.204 155.285C653.817 156.838 648.806 154.797 640.204 147.285C632.636 150.05 627.762 149.259 617.704 142.785C609.311 146.476 604.368 147.247 594.204 141.285C587.572 146.958 582.56 147.435 571.704 144.285C565.865 148.884 561.597 150.636 549.204 149.785Z" fill="#FEDE5D"/>
</svg>
